<?xml version="1.0" standalone="no"?><!DOCTYPE svg PUBLIC "-//W3C//DTD SVG 1.1//EN" "http://www.w3.org/Graphics/SVG/1.1/DTD/svg11.dtd"><svg t="1619190689110" class="icon" viewBox="0 0 1028 1024" version="1.1" xmlns="http://www.w3.org/2000/svg" p-id="10921" width="250.9765625" height="250" xmlns:xlink="http://www.w3.org/1999/xlink"><defs><style type="text/css"></style></defs><path d="M429.2 213.3l85.8-148.7 85.8 148.7z" fill="#38C9E5" p-id="10922"></path><path d="M0 959.4l85.7-148.7 85.9 148.7z" fill="#2ED7FF" p-id="10923"></path><path d="M856.8 959.4l85.8-148.7 85.8 148.7z" fill="#00EACA" p-id="10924"></path><path d="M510.9 505.2v342.4H310.6V505.2h200.3m30-30H280.6v402.4h260.3V475.2z" fill="#545EFB" p-id="10925"></path><path d="M476.4 550.6H744.2v392.8H476.4z" fill="#FFFFFF" p-id="10926"></path><path d="M729.2 565.6v362.8H491.4V565.6H729.2m30-30H461.4v422.8H759.2V535.6z" fill="#545EFB" p-id="10927"></path><path d="M354.4 629.6h111v39h-111zM451.4 708.1v11h-83v-11h83m14-14h-111v39h111v-39zM539.4 713.6h144v39h-144zM669.4 792.1v11h-116v-11h116m14-14h-144v39h144v-39zM669.4 851.7v11h-116v-11h116m14-14h-144v39h144v-39zM429.2 353h199v30H429.2z" fill="#545EFB" p-id="10928"></path><path d="M280.5 475h260.4l-13.9-26H295.5zM744.3 512H477.1L461.2 536h298.1z" fill="#C7C9FD" p-id="10929"></path><path d="M608.2 353h30v202h-30z" fill="#545EFB" p-id="10930"></path><path d="M583.672 458.988l52.549 68.838-23.847 18.204-52.549-68.838z" fill="#545EFB" p-id="10931"></path><path d="M661.766 458.968l23.847 18.201-52.54 68.839-23.848-18.201zM414.2 353h30v96h-30z" fill="#545EFB" p-id="10932"></path><path d="M639.2 353.3H414.2l16.6-26h191.8z" fill="#C7C9FD" p-id="10933"></path><path d="M391.6 613.9h-10.9l-25.6-64.1h10.6c13.3 36.2 20.2 54.8 20.6 55.6h0.3c0.2-1 6.8-19.6 19.7-55.6H417.2l-25.6 64.1zM439.7 613.9v-50c-4.8 4.6-11.4 8.6-19.7 12.2v-8.4c10.8-5 18.1-11.1 21.9-18.4h7.2V614h-9.4z" fill="#545EFB" p-id="10934"></path><path d="M591.6 680.1h-10.9L555.1 616h10.6c13.3 36.2 20.2 54.8 20.6 55.6h0.3c0.2-1 6.8-19.6 19.7-55.6H617.2l-25.6 64.1zM632.2 672.6h33.1v7.2h-44.7v-5.3c4.4-8.1 11-15.6 20-22.5 10.6-7.5 15.5-13.5 14.7-18.1-0.2-7.1-4.2-10.7-11.9-10.9-6.9 0-11.2 4.1-13.1 12.2l-8.8-2.8c3.1-11.5 10.9-17.2 23.4-17.2 12.7 0.4 19.5 6.4 20.3 17.8 1 7.5-4.1 14.9-15.3 22.2-7.8 5.4-13.7 11.2-17.7 17.4z" fill="#545EFB" p-id="10935"></path></svg>